<svg width="79" height="16" viewBox="0 0 79 16" fill="none" xmlns="http://www.w3.org/2000/svg">
<path d="M8.06 15.22C7.00667 15.22 6.02667 15.04 5.12 14.68C4.22667 14.3067 3.44 13.7867 2.76 13.12C2.09333 12.4533 1.57333 11.68 1.2 10.8C0.826667 9.90667 0.64 8.94667 0.64 7.92C0.64 6.89333 0.826667 5.94 1.2 5.06C1.57333 4.16667 2.09333 3.39333 2.76 2.74C3.42667 2.08667 4.20667 1.58 5.1 1.22C6.00667 0.846666 6.98667 0.66 8.04 0.66C9.16 0.66 10.1533 0.84 11.02 1.2C11.9 1.56 12.6667 2.05333 13.32 2.68L11.22 4.8C10.8467 4.4 10.3933 4.08667 9.86 3.86C9.34 3.63333 8.73333 3.52 8.04 3.52C7.42667 3.52 6.86 3.62667 6.34 3.84C5.83333 4.04 5.39333 4.33333 5.02 4.72C4.66 5.10667 4.37333 5.57333 4.16 6.12C3.96 6.66667 3.86 7.26667 3.86 7.92C3.86 8.58667 3.96 9.19333 4.16 9.74C4.37333 10.2867 4.66 10.7533 5.02 11.14C5.39333 11.5267 5.83333 11.8267 6.34 12.04C6.86 12.2533 7.42667 12.36 8.04 12.36C8.76 12.36 9.38667 12.2467 9.92 12.02C10.4533 11.7933 10.9133 11.48 11.3 11.08L13.42 13.2C12.74 13.8267 11.96 14.32 11.08 14.68C10.2133 15.04 9.20667 15.22 8.06 15.22ZM17.5491 9.18V6.86H20.5291C21.1557 6.86 21.6357 6.7 21.9691 6.38C22.3157 6.06 22.4891 5.62667 22.4891 5.08C22.4891 4.57333 22.3224 4.15333 21.9891 3.82C21.6557 3.48667 21.1757 3.32 20.5491 3.32H17.5491V0.879999H20.9091C21.8424 0.879999 22.6624 1.06 23.3691 1.42C24.0757 1.76667 24.6291 2.25333 25.0291 2.88C25.4291 3.50667 25.6291 4.22667 25.6291 5.04C25.6291 5.86667 25.4291 6.59333 25.0291 7.22C24.6291 7.83333 24.0691 8.31333 23.3491 8.66C22.6291 9.00667 21.7824 9.18 20.8091 9.18H17.5491ZM15.1491 15V0.879999H18.2891V15H15.1491ZM22.8291 15L18.4291 8.92L21.3091 8.14L26.5491 15H22.8291ZM31.5789 9.74L26.1389 0.879999H29.7789L33.9589 8.04H31.6189L35.7989 0.879999H39.3589L33.8789 9.74H31.5789ZM31.1989 15V8.3H34.3389V15H31.1989ZM42.8811 9.86V7.42H45.9211C46.3078 7.42 46.6611 7.34 46.9811 7.18C47.3011 7.02 47.5544 6.78667 47.7411 6.48C47.9278 6.17333 48.0211 5.8 48.0211 5.36C48.0211 4.93333 47.9278 4.56667 47.7411 4.26C47.5544 3.95333 47.3011 3.72 46.9811 3.56C46.6611 3.4 46.3078 3.32 45.9211 3.32H42.8811V0.879999H46.3811C47.2744 0.879999 48.0811 1.06 48.8011 1.42C49.5211 1.78 50.0878 2.3 50.5011 2.98C50.9278 3.64667 51.1411 4.44 51.1411 5.36C51.1411 6.28 50.9278 7.08 50.5011 7.76C50.0878 8.42667 49.5211 8.94667 48.8011 9.32C48.0811 9.68 47.2744 9.86 46.3811 9.86H42.8811ZM40.4811 15V0.879999H43.6211V15H40.4811ZM56.2458 15V1.08H59.3858V15H56.2458ZM51.8258 3.62V0.879999H63.8058V3.62H51.8258ZM71.557 15.24C70.4904 15.24 69.5037 15.0533 68.597 14.68C67.7037 14.3067 66.917 13.7867 66.237 13.12C65.557 12.4533 65.0304 11.68 64.657 10.8C64.2837 9.90667 64.097 8.94667 64.097 7.92C64.097 6.88 64.2837 5.92 64.657 5.04C65.0304 4.16 65.5504 3.39333 66.217 2.74C66.8837 2.07333 67.6637 1.56 68.557 1.2C69.4637 0.826666 70.4504 0.639999 71.517 0.639999C72.5704 0.639999 73.5437 0.826666 74.437 1.2C75.3437 1.56 76.1304 2.07333 76.797 2.74C77.477 3.39333 78.0037 4.16667 78.377 5.06C78.7504 5.94 78.937 6.9 78.937 7.94C78.937 8.96667 78.7504 9.92667 78.377 10.82C78.0037 11.7 77.4837 12.4733 76.817 13.14C76.1504 13.7933 75.3637 14.3067 74.457 14.68C73.5637 15.0533 72.597 15.24 71.557 15.24ZM71.517 12.38C72.357 12.38 73.0904 12.1933 73.717 11.82C74.357 11.4467 74.8504 10.9267 75.197 10.26C75.5437 9.58 75.717 8.8 75.717 7.92C75.717 7.25333 75.617 6.65333 75.417 6.12C75.217 5.57333 74.9304 5.10667 74.557 4.72C74.1837 4.32 73.737 4.02 73.217 3.82C72.7104 3.60667 72.1437 3.5 71.517 3.5C70.677 3.5 69.937 3.68667 69.297 4.06C68.6704 4.42 68.1837 4.93333 67.837 5.6C67.4904 6.25333 67.317 7.02667 67.317 7.92C67.317 8.58667 67.417 9.19333 67.617 9.74C67.817 10.2867 68.097 10.76 68.457 11.16C68.8304 11.5467 69.277 11.8467 69.797 12.06C70.317 12.2733 70.8904 12.38 71.517 12.38Z" fill="white"/>
</svg>
